<svg xmlns="http://www.w3.org/2000/svg" viewBox="0 0 120 150" fill="none">
  <g stroke="#e0955a" stroke-width="6" stroke-linecap="round" stroke-linejoin="round">
    <!-- Rod -->
    <line x1="14" y1="16" x2="104" y2="16" />
    <circle cx="12" cy="16" r="5" fill="#e0955a" />
    <circle cx="106" cy="16" r="5" fill="#e0955a" />
    <!-- Rings -->
    <path d="M24 12v8M38 12v8M52 12v8M66 12v8M80 12v8M94 12v8" stroke-width="4" />
    <!-- Curtain folds -->
    <path d="M22 22 C22 60 22 96 22 118 C22 132 34 132 34 118 C34 96 34 74 34 60" />
    <path d="M46 40 C46 74 46 100 46 120 C46 134 58 134 58 120 C58 100 58 78 58 62" />
    <path d="M70 40 C70 74 70 100 70 120 C70 134 82 134 82 120 C82 100 82 78 82 62" />
    <path d="M94 22 C94 60 94 96 94 116 C94 128 88 130 86 124" />
  </g>
</svg>
